<mxfile host="app.diagrams.net" modified="2020-10-23T06:39:36.941Z" agent="5.0 (Macintosh; Intel Mac OS X 10_15_4) AppleWebKit/537.36 (KHTML, like Gecko) Chrome/85.0.4183.83 Safari/537.36" etag="n2soQZN6Vos-APaGM1JS" version="13.8.1" type="github">
  <diagram id="wFE0QG_FPsp0jaGvCLVb" name="Page-1">
    <mxGraphModel dx="586" dy="659" grid="1" gridSize="10" guides="1" tooltips="1" connect="1" arrows="1" fold="1" page="1" pageScale="1" pageWidth="1200" pageHeight="1600" math="0" shadow="0">
      <root>
        <mxCell id="0" />
        <mxCell id="1" parent="0" />
        <mxCell id="YJZiSt_TrKRbv5jnBTgL-6" value="" style="group" vertex="1" connectable="0" parent="1">
          <mxGeometry x="80" y="40" width="280" height="200" as="geometry" />
        </mxCell>
        <mxCell id="YJZiSt_TrKRbv5jnBTgL-1" value="" style="rounded=1;whiteSpace=wrap;html=1;" vertex="1" parent="YJZiSt_TrKRbv5jnBTgL-6">
          <mxGeometry width="280" height="200" as="geometry" />
        </mxCell>
        <mxCell id="YJZiSt_TrKRbv5jnBTgL-2" value="&lt;font style=&quot;font-size: 24px&quot;&gt;Server&lt;/font&gt;" style="text;html=1;strokeColor=none;fillColor=none;align=center;verticalAlign=middle;whiteSpace=wrap;rounded=0;" vertex="1" parent="YJZiSt_TrKRbv5jnBTgL-6">
          <mxGeometry x="20" y="10" width="70" height="30" as="geometry" />
        </mxCell>
        <mxCell id="YJZiSt_TrKRbv5jnBTgL-7" value="" style="group" vertex="1" connectable="0" parent="1">
          <mxGeometry x="80" y="280" width="280" height="200" as="geometry" />
        </mxCell>
        <mxCell id="YJZiSt_TrKRbv5jnBTgL-3" value="" style="rounded=1;whiteSpace=wrap;html=1;" vertex="1" parent="YJZiSt_TrKRbv5jnBTgL-7">
          <mxGeometry width="280" height="200" as="geometry" />
        </mxCell>
        <mxCell id="YJZiSt_TrKRbv5jnBTgL-4" value="&lt;font style=&quot;font-size: 24px&quot;&gt;算法&lt;/font&gt;" style="text;html=1;strokeColor=none;fillColor=none;align=center;verticalAlign=middle;whiteSpace=wrap;rounded=0;" vertex="1" parent="YJZiSt_TrKRbv5jnBTgL-7">
          <mxGeometry x="14" y="10" width="70" height="20" as="geometry" />
        </mxCell>
        <mxCell id="YJZiSt_TrKRbv5jnBTgL-26" value="" style="group" vertex="1" connectable="0" parent="1">
          <mxGeometry x="440" y="40" width="280" height="440" as="geometry" />
        </mxCell>
        <mxCell id="YJZiSt_TrKRbv5jnBTgL-22" value="" style="rounded=1;whiteSpace=wrap;html=1;" vertex="1" parent="YJZiSt_TrKRbv5jnBTgL-26">
          <mxGeometry width="280" height="440" as="geometry" />
        </mxCell>
        <mxCell id="YJZiSt_TrKRbv5jnBTgL-25" value="&lt;span style=&quot;font-size: 24px&quot;&gt;pacs服务&lt;/span&gt;" style="text;html=1;strokeColor=none;fillColor=none;align=center;verticalAlign=middle;whiteSpace=wrap;rounded=0;" vertex="1" parent="YJZiSt_TrKRbv5jnBTgL-26">
          <mxGeometry x="20" y="10" width="110" height="30" as="geometry" />
        </mxCell>
        <mxCell id="YJZiSt_TrKRbv5jnBTgL-27" value="" style="group" vertex="1" connectable="0" parent="1">
          <mxGeometry x="720" y="70" width="340" height="260" as="geometry" />
        </mxCell>
        <mxCell id="YJZiSt_TrKRbv5jnBTgL-16" value="" style="shape=cube;whiteSpace=wrap;html=1;boundedLbl=1;backgroundOutline=1;darkOpacity=0.05;darkOpacity2=0.1;" vertex="1" parent="YJZiSt_TrKRbv5jnBTgL-27">
          <mxGeometry x="120" width="220" height="200" as="geometry" />
        </mxCell>
        <mxCell id="YJZiSt_TrKRbv5jnBTgL-17" value="医院一" style="text;html=1;strokeColor=none;fillColor=none;align=center;verticalAlign=middle;whiteSpace=wrap;rounded=0;" vertex="1" parent="YJZiSt_TrKRbv5jnBTgL-27">
          <mxGeometry x="145.7142857142857" width="48.57142857142857" height="23.636363636363637" as="geometry" />
        </mxCell>
        <mxCell id="YJZiSt_TrKRbv5jnBTgL-28" value="医院Pacs" style="shape=cylinder3;whiteSpace=wrap;html=1;boundedLbl=1;backgroundOutline=1;size=15;" vertex="1" parent="YJZiSt_TrKRbv5jnBTgL-27">
          <mxGeometry x="270" y="26" width="60" height="50" as="geometry" />
        </mxCell>
        <mxCell id="YJZiSt_TrKRbv5jnBTgL-30" value="MyPacs" style="shape=cylinder3;whiteSpace=wrap;html=1;boundedLbl=1;backgroundOutline=1;size=15;" vertex="1" parent="YJZiSt_TrKRbv5jnBTgL-27">
          <mxGeometry x="270" y="146" width="60" height="50" as="geometry" />
        </mxCell>
        <mxCell id="YJZiSt_TrKRbv5jnBTgL-31" value="&lt;div style=&quot;text-align: left&quot;&gt;&lt;span&gt;定时任务服务：&lt;/span&gt;&lt;/div&gt;&lt;div style=&quot;text-align: left&quot;&gt;&lt;span&gt;1.同步数据/文件&lt;/span&gt;&lt;/div&gt;&lt;div style=&quot;text-align: left&quot;&gt;&lt;span&gt;2.处理理历史文件&lt;/span&gt;&lt;/div&gt;" style="rounded=1;whiteSpace=wrap;html=1;" vertex="1" parent="YJZiSt_TrKRbv5jnBTgL-27">
          <mxGeometry x="143" y="130" width="120" height="60" as="geometry" />
        </mxCell>
        <mxCell id="YJZiSt_TrKRbv5jnBTgL-32" value="临时Pacs" style="shape=cylinder3;whiteSpace=wrap;html=1;boundedLbl=1;backgroundOutline=1;size=15;" vertex="1" parent="YJZiSt_TrKRbv5jnBTgL-27">
          <mxGeometry x="270" y="86" width="60" height="50" as="geometry" />
        </mxCell>
        <mxCell id="YJZiSt_TrKRbv5jnBTgL-33" value="&lt;div style=&quot;text-align: left&quot;&gt;&lt;span&gt;xxx服务：&lt;/span&gt;&lt;/div&gt;&lt;div style=&quot;text-align: left&quot;&gt;1.&lt;/div&gt;" style="rounded=1;whiteSpace=wrap;html=1;" vertex="1" parent="YJZiSt_TrKRbv5jnBTgL-27">
          <mxGeometry x="143" y="30" width="120" height="60" as="geometry" />
        </mxCell>
        <mxCell id="YJZiSt_TrKRbv5jnBTgL-37" value="" style="html=1;shadow=0;dashed=0;align=center;verticalAlign=middle;shape=mxgraph.arrows2.arrow;dy=0;dx=10;notch=10;direction=south;" vertex="1" parent="YJZiSt_TrKRbv5jnBTgL-27">
          <mxGeometry x="287.5" y="77" width="25" height="25" as="geometry" />
        </mxCell>
        <mxCell id="YJZiSt_TrKRbv5jnBTgL-44" value="" style="html=1;shadow=0;dashed=0;align=center;verticalAlign=middle;shape=mxgraph.arrows2.arrow;dy=0;dx=10;notch=10;direction=south;" vertex="1" parent="YJZiSt_TrKRbv5jnBTgL-27">
          <mxGeometry x="287.5" y="137" width="25" height="25" as="geometry" />
        </mxCell>
        <mxCell id="YJZiSt_TrKRbv5jnBTgL-47" value="" style="html=1;shadow=0;dashed=0;align=center;verticalAlign=middle;shape=mxgraph.arrows2.arrow;dy=0;dx=10;notch=10;direction=south;" vertex="1" parent="1">
          <mxGeometry x="1060" y="480" width="25" height="25" as="geometry" />
        </mxCell>
        <mxCell id="YJZiSt_TrKRbv5jnBTgL-62" value="1.中台server通过搜索获取ct信息存储到自己数据库与预测数据映射；&lt;br&gt;2.中台server在同步任务队列里面把成功的任务信息存储到自己数据库，并进行预测&lt;br&gt;3.来了一个mypacs里面没有，但是在同步队列中的任务，如果未执行就把优先级设最高，&lt;br&gt;然后返回任务状态，让用户用户等待，轮训结果&lt;br&gt;4.来了一个mypacs里面没有，也不在同步队列中，就增加这个ct的优先级最高的任务，并返回任务状态，让用户用户等待，轮训结果&lt;br&gt;&lt;br&gt;5.直接 接机器和用dicom标准进行数据同步，处理筛选序列的问题；现有解决方案：1.这些步骤接入到临时Pacs，然后用定时任务请筛选过滤到MyPacs" style="text;html=1;strokeColor=none;fillColor=none;align=left;verticalAlign=middle;whiteSpace=wrap;rounded=0;" vertex="1" parent="1">
          <mxGeometry x="760" y="470" width="280" height="210" as="geometry" />
        </mxCell>
      </root>
    </mxGraphModel>
  </diagram>
</mxfile>
